<svg width="144" height="28" viewBox="0 0 144 28" fill="none" xmlns="http://www.w3.org/2000/svg">
<mask id="mask0_29_1042" style="mask-type:luminance" maskUnits="userSpaceOnUse" x="0" y="0" width="28" height="28">
<path d="M0 4.83665C0 2.19624 2.14901 0.0557556 4.80001 0.0557556H23.2001C25.8509 0.0557556 28.0001 2.19624 28.0001 4.83665V23.1634C28.0001 25.8036 25.8509 27.9442 23.2001 27.9442H4.80001C2.14901 27.9442 0 25.8036 0 23.1634V4.83665Z" fill="white"/>
</mask>
<g mask="url(#mask0_29_1042)">
<path d="M4.8008 1.25113H23.2009V-1.13931H4.8008V1.25113ZM26.8009 4.8368V23.1635H29.2009V4.8368H26.8009ZM23.2009 26.7492H4.8008V29.1396H23.2009V26.7492ZM1.20079 23.1635V4.8368H-1.19922V23.1635H1.20079ZM4.8008 26.7492C2.81255 26.7492 1.20079 25.144 1.20079 23.1635H-1.19922C-1.19922 26.4639 1.48707 29.1396 4.8008 29.1396V26.7492ZM26.8009 23.1635C26.8009 25.144 25.1893 26.7492 23.2009 26.7492V29.1396C26.5145 29.1396 29.2009 26.4639 29.2009 23.1635H26.8009ZM23.2009 1.25113C25.1893 1.25113 26.8009 2.85648 26.8009 4.8368H29.2009C29.2009 1.53627 26.5145 -1.13931 23.2009 -1.13931V1.25113ZM4.8008 -1.13931C1.48707 -1.13931 -1.19922 1.53627 -1.19922 4.8368H1.20079C1.20079 2.85648 2.81255 1.25113 4.8008 1.25113V-1.13931Z" fill="#171717"/>
</g>
<path fill-rule="evenodd" clip-rule="evenodd" d="M15.7285 20.0271L15.0281 20.1442C14.7401 20.1924 14.5341 20.4502 14.5493 20.743L14.5913 21.5419C14.6073 21.8478 14.8589 22.0877 15.1645 22.0877H20.9857C21.3025 22.0877 21.5597 21.8299 21.5597 21.5116V20.6817C21.5597 20.4152 21.3777 20.1833 21.1193 20.1211L20.0353 19.8598L20.0301 19.855L20.0297 19.8542L20.0273 19.8518L20.0265 19.851L20.0197 19.8442L20.0189 19.8438L19.9901 19.8148L19.9849 19.8092L19.9825 19.8068L19.9801 19.8044L19.9777 19.8024L19.9753 19.8L19.9749 19.7992L19.9693 19.7936L19.9685 19.7928L19.9661 19.7905L19.9653 19.7897L19.9597 19.7841L19.9589 19.7833L19.9581 19.7825L19.9573 19.7817L19.9533 19.7777L19.9525 19.7769L19.9517 19.7761L19.9509 19.7753L19.9501 19.7745L19.9493 19.7737L19.9485 19.7729L19.9477 19.7721L19.9469 19.7713L19.9461 19.7705L19.9453 19.7697L19.9445 19.7689L19.9437 19.7681L19.9429 19.7673L19.9421 19.7666L19.9397 19.7642L19.9389 19.7634L19.9381 19.7626L19.9373 19.7618L19.9285 19.7526L19.9277 19.7518L19.9237 19.7478L19.9229 19.747L19.8825 19.7064L19.8797 19.704L19.8773 19.7012L19.8765 19.7004L19.8705 19.6944L19.8697 19.6936L19.8673 19.6912L19.8661 19.6901L19.8621 19.6861L19.8613 19.6853L19.8605 19.6841L19.8593 19.6833L19.8569 19.6809L19.8561 19.6801L19.8553 19.6789L19.8545 19.6781L19.8533 19.6773L19.8525 19.6765L19.8389 19.6626L19.8381 19.6618L19.8369 19.661L19.8361 19.6602L19.8337 19.6574L19.8329 19.6566L19.8317 19.6558L19.8309 19.6546L19.8249 19.6486L19.8221 19.6458L19.8177 19.6414L19.8153 19.6391L19.8045 19.6283L19.7677 19.5913L19.7669 19.5905L19.7605 19.5841L19.7597 19.5829L19.7529 19.5765L19.7521 19.5757L19.7493 19.5729L19.7485 19.5721L19.7477 19.5709L19.7465 19.5701L19.7261 19.5498L19.7253 19.5486L19.7245 19.5478L19.7233 19.5466L19.7205 19.5438L19.7197 19.543L19.7133 19.5363L19.7121 19.5355L19.7057 19.5287L19.7045 19.5279L19.6985 19.5215C19.5297 19.3351 19.3369 19.1247 19.1201 18.8905C18.9069 18.6235 18.6533 18.3347 18.3609 18.0235L14.0789 13.2282L19.4481 8.12743L20.7169 7.90775C21.0033 7.85823 21.2073 7.60205 21.1929 7.31093L21.1505 6.46005C21.1353 6.15328 20.8829 5.91245 20.5773 5.91245H15.7841C15.4789 5.91245 15.2273 6.1524 15.2109 6.45854L15.1689 7.26109C15.1541 7.54416 15.3465 7.79604 15.6225 7.85512L16.2793 7.99568L11.6429 12.8098L11.2789 12.9063V9.53309C11.2957 8.99353 11.3125 8.58209 11.3289 8.29647C11.3361 8.23476 11.3433 8.1805 11.3501 8.13325L12.5597 7.85456C12.8313 7.79189 13.0189 7.54213 13.0045 7.26245L12.9621 6.45854C12.9461 6.1524 12.6945 5.91245 12.3889 5.91245H7.07684C6.77724 5.91245 6.52804 6.14364 6.50444 6.44344L6.44124 7.24759C6.41884 7.53325 6.60884 7.79209 6.88724 7.8552L8.08365 8.12651C8.08525 8.17883 8.08605 8.2387 8.08605 8.30655V8.31974L8.08685 8.33289C8.10325 8.63118 8.11205 9.05333 8.11205 9.60349V9.61114V9.61879C8.12925 10.1481 8.13765 10.7997 8.13765 11.5749V16.4514C8.13765 17.5912 8.12925 18.4765 8.11205 19.11C8.10285 19.4494 8.09165 19.7016 8.07925 19.8757L6.91084 20.145C6.63364 20.2092 6.44484 20.4673 6.46724 20.7522L6.53044 21.5566C6.55404 21.8566 6.80324 22.0877 7.10245 22.0877H12.3141C12.6137 22.0877 12.8625 21.8566 12.8861 21.5566L12.9493 20.7522C12.9717 20.4673 12.7829 20.2092 12.5057 20.145L11.3505 19.8789C11.3377 19.6936 11.3221 19.4363 11.3045 19.1036C11.2873 18.4709 11.2789 17.5873 11.2789 16.4514V15.0325H11.3929L15.2081 19.3893L15.2125 19.394C15.4193 19.6175 15.5905 19.8283 15.7285 20.0271Z" fill="#171717"/>
<path d="M40 4.78138C40 4.56632 40.0412 4.38847 40.1232 4.24788C40.214 4.10724 40.4236 4.03696 40.7528 4.03696H42.8624C43.1008 4.03696 43.2736 4.11138 43.3808 4.26026C43.4876 4.40086 43.5412 4.55389 43.5412 4.71935V14.9552L48.97 9.04945C49.0768 8.94192 49.1836 8.8592 49.2908 8.80128C49.406 8.74339 49.5416 8.71442 49.698 8.71442H52.5232C52.7044 8.71442 52.84 8.75168 52.9304 8.8261C53.0208 8.90056 53.0664 8.9998 53.0664 9.12387C53.0664 9.20658 53.054 9.28104 53.0292 9.34721C53.0044 9.41339 52.9592 9.48781 52.8936 9.57052L47.3536 15.3895L53.93 23.5533H53.9052C53.9956 23.6445 54.0572 23.7437 54.0904 23.8513C54.1316 23.9589 54.152 24.0457 54.152 24.1118C54.152 24.2525 54.1108 24.3473 54.0284 24.3971C53.9464 24.4469 53.8228 24.4716 53.6584 24.4716H50.512C50.2736 24.4716 50.0432 24.2979 49.8212 23.9505L45.0464 17.7094L43.5656 19.2604V23.727C43.5656 23.8015 43.5536 23.8844 43.5288 23.9752C43.504 24.0581 43.4628 24.1365 43.4052 24.211C43.356 24.2855 43.286 24.3473 43.1956 24.3971C43.1052 24.4469 42.994 24.4716 42.8624 24.4716H40.6784C40.5552 24.4716 40.4524 24.4469 40.37 24.3971C40.288 24.3473 40.218 24.2855 40.1604 24.211C40.1028 24.1365 40.0616 24.062 40.0368 23.9875C40.0124 23.9051 40 23.8389 40 23.7891V4.78138Z" fill="#171717"/>
<path d="M56.3984 9.47135C56.3984 9.25629 56.46 9.07844 56.5836 8.93784C56.7068 8.78896 56.888 8.71449 57.1264 8.71449H59.1748C59.2652 8.71449 59.3556 8.73517 59.446 8.77653C59.5448 8.80963 59.6312 8.86338 59.7052 8.93784C59.7792 9.00402 59.8408 9.08258 59.8904 9.17358C59.9396 9.26458 59.9644 9.36382 59.9644 9.47135V23.7271C59.9644 24.2235 59.7052 24.4717 59.1868 24.4717H57.1388C56.6452 24.4717 56.3984 24.2235 56.3984 23.7271V9.47135ZM56.3984 3.98739C56.3984 3.49109 56.6412 3.24297 57.1264 3.24297H59.1992C59.4296 3.24297 59.6148 3.305 59.7544 3.42906C59.8944 3.55313 59.9644 3.73922 59.9644 3.98739V5.83604C59.9644 6.02628 59.8985 6.20827 59.7668 6.38198C59.6352 6.5474 59.45 6.63011 59.2116 6.63011H57.1388C56.6452 6.63011 56.3984 6.3654 56.3984 5.83604V3.98739Z" fill="#171717"/>
<path d="M63.9648 9.4464C63.9648 9.20652 64.0428 9.02457 64.1992 8.9005C64.3636 8.7764 64.5404 8.71437 64.7296 8.71437H66.2969C66.5025 8.71437 66.6585 8.7764 66.7657 8.9005C66.8725 9.02457 66.9549 9.17759 67.0125 9.35955C67.0701 9.54154 67.1109 9.74003 67.1357 9.95509C67.1605 10.1619 67.1893 10.3521 67.2221 10.5258C67.4033 10.2694 67.6045 10.0213 67.8269 9.78138C68.0569 9.53325 68.3161 9.31405 68.6041 9.12381C68.8921 8.93357 69.2169 8.78054 69.5789 8.66477C69.9405 8.54895 70.3521 8.49106 70.8125 8.49106C71.2237 8.49106 71.5941 8.51998 71.9229 8.57791C72.2521 8.62751 72.5645 8.71026 72.8609 8.82604C73.1649 8.93357 73.4613 9.07831 73.7489 9.2603C74.0369 9.43401 74.3453 9.64078 74.6745 9.88066C74.8141 9.97162 74.9337 10.075 75.0321 10.1908C75.1393 10.3066 75.1925 10.4431 75.1925 10.6003C75.1845 10.6664 75.1721 10.7368 75.1557 10.8112C75.1393 10.8856 75.1061 10.9601 75.0569 11.0345L74.0453 12.6474C73.9793 12.7302 73.9013 12.7922 73.8109 12.8335C73.7285 12.8667 73.6545 12.8832 73.5885 12.8832C73.4569 12.8832 73.3297 12.8501 73.2061 12.7839C72.9349 12.6351 72.6881 12.4944 72.4661 12.3621C72.2437 12.2298 72.0257 12.1181 71.8121 12.0271C71.5981 11.9278 71.3761 11.8534 71.1457 11.8038C70.9237 11.7459 70.6729 11.7169 70.3929 11.7169C69.6609 11.7169 69.0401 11.9527 68.5301 12.4241C68.0281 12.8956 67.6909 13.5449 67.5181 14.372V23.7269C67.5181 24.2233 67.2633 24.4715 66.7532 24.4715H64.7296C64.2196 24.4715 63.9648 24.2233 63.9648 23.7269V9.4464Z" fill="#171717"/>
<path d="M76.104 9.71944C76.104 9.71944 76.0996 9.70291 76.0916 9.66984C76.0832 9.63674 76.0708 9.59538 76.0544 9.54574C76.0464 9.49614 76.038 9.44235 76.03 9.38446C76.0216 9.32658 76.0176 9.27693 76.0176 9.23558C76.0176 9.07841 76.0708 8.95434 76.178 8.86335C76.2932 8.76411 76.4616 8.71446 76.6836 8.71446H78.9048C79.102 8.71446 79.2624 8.76411 79.386 8.86335C79.5092 8.96263 79.608 9.10323 79.682 9.28522L79.904 9.84351C80.0684 10.315 80.2536 10.8444 80.4592 11.4316C80.6732 12.0189 80.8912 12.6269 81.1132 13.2555C81.3352 13.8759 81.5576 14.4962 81.7796 15.1166C82.0016 15.7287 82.2112 16.3075 82.4088 16.8537C82.606 17.3911 82.7832 17.8708 82.9392 18.2927C83.0956 18.7063 83.2188 19.025 83.3096 19.2481C83.4492 18.8429 83.6096 18.3796 83.7908 17.8585C83.98 17.329 84.1812 16.7708 84.3952 16.1836C84.6092 15.588 84.8272 14.976 85.0492 14.3473C85.2712 13.7187 85.4892 13.1025 85.7032 12.4987C85.9168 11.8948 86.1184 11.32 86.3076 10.7741C86.5052 10.2199 86.682 9.71945 86.838 9.27279C86.9204 9.07427 87.0192 8.93367 87.1344 8.85096C87.2576 8.75996 87.422 8.71446 87.628 8.71446H89.9352C90.19 8.71446 90.3628 8.75582 90.4532 8.83857C90.552 8.92128 90.6012 9.02881 90.6012 9.16112C90.6012 9.22729 90.5892 9.31 90.5644 9.40929C90.548 9.50853 90.5316 9.58299 90.5148 9.63259L84.642 23.9752C84.576 24.0912 84.494 24.2027 84.3952 24.3103C84.3048 24.4179 84.132 24.4716 83.8768 24.4716H82.742C82.4456 24.4716 82.2444 24.4218 82.1372 24.3226C82.0384 24.2151 81.9644 24.0995 81.9152 23.9752L76.104 9.71944Z" fill="#171717"/>
<path d="M108.373 23.7396C108.373 23.8886 108.34 24.0129 108.274 24.1121C108.217 24.2029 108.139 24.2774 108.04 24.3352C107.941 24.385 107.826 24.4221 107.695 24.4472C107.571 24.4635 107.439 24.4719 107.3 24.4719H105.757C105.494 24.4719 105.309 24.4014 105.202 24.2607C105.103 24.1201 105.029 23.9424 104.98 23.7272L104.906 22.6727C104.618 22.9623 104.297 23.2352 103.944 23.4918C103.598 23.7396 103.224 23.9591 102.821 24.1492C102.418 24.3312 101.99 24.4719 101.538 24.5711C101.085 24.6786 100.621 24.7324 100.143 24.7324C99.403 24.7324 98.6874 24.6372 97.9966 24.4472C97.3138 24.2484 96.6722 23.9755 96.0718 23.628C95.4714 23.2723 94.9242 22.8464 94.431 22.3504C93.9454 21.8539 93.5262 21.3037 93.1722 20.7001C92.827 20.0962 92.5554 19.4468 92.3578 18.7519C92.169 18.0571 92.0742 17.3336 92.0742 16.581C92.0742 15.8281 92.169 15.1044 92.3578 14.4096C92.5554 13.7148 92.827 13.0655 93.1722 12.4617C93.5262 11.8578 93.9454 11.312 94.431 10.8239C94.9242 10.3276 95.4714 9.90581 96.0718 9.5584C96.6722 9.20274 97.3138 8.92975 97.9966 8.73951C98.6874 8.54098 99.403 8.44174 100.143 8.44174C100.67 8.44174 101.172 8.49963 101.649 8.61545C102.126 8.72298 102.57 8.88015 102.981 9.08692C103.401 9.28545 103.787 9.52943 104.141 9.81896C104.495 10.1002 104.815 10.4104 105.103 10.7495L105.276 9.4219C105.317 9.27302 105.354 9.1531 105.387 9.0621C105.428 8.96286 105.473 8.88425 105.523 8.82636C105.581 8.76848 105.651 8.73126 105.733 8.71469C105.815 8.68991 105.918 8.67748 106.041 8.67748H107.275C107.407 8.67748 107.538 8.68991 107.67 8.71469C107.801 8.73951 107.921 8.78087 108.027 8.83879C108.135 8.8884 108.217 8.96286 108.274 9.0621C108.34 9.1531 108.373 9.26888 108.373 9.40951V23.7396ZM95.5414 16.581C95.5414 17.2424 95.6566 17.8711 95.8866 18.4667C96.117 19.0539 96.4378 19.5711 96.849 20.0177C97.2602 20.4643 97.7414 20.8201 98.2926 21.0846C98.8522 21.3412 99.4606 21.4691 100.119 21.4691C100.785 21.4691 101.406 21.3412 101.982 21.0846C102.566 20.8201 103.072 20.4643 103.499 20.0177C103.927 19.5711 104.265 19.0539 104.511 18.4667C104.758 17.8711 104.881 17.2424 104.881 16.581C104.881 15.9274 104.758 15.307 104.511 14.7198C104.265 14.1242 103.927 13.6031 103.499 13.1565C103.072 12.7098 102.566 12.3541 101.982 12.0894C101.406 11.8248 100.785 11.6924 100.119 11.6924C99.4606 11.6924 98.8522 11.8248 98.2926 12.0894C97.7414 12.3541 97.2602 12.7098 96.849 13.1565C96.4378 13.6031 96.117 14.1242 95.8866 14.7198C95.6566 15.307 95.5414 15.9274 95.5414 16.581Z" fill="#171717"/>
<path d="M111.607 9.4466C111.607 9.33078 111.657 9.20671 111.755 9.07436C111.854 8.94205 111.949 8.85935 112.039 8.82624C112.105 8.76006 112.203 8.72699 112.335 8.72699C112.467 8.71871 112.59 8.71456 112.705 8.71456H113.951C114.19 8.71456 114.367 8.79317 114.482 8.9503C114.597 9.10747 114.675 9.28118 114.717 9.47142L114.852 10.7866C115.041 10.5053 115.272 10.2282 115.543 9.95528C115.823 9.68234 116.152 9.43831 116.53 9.22329C116.909 9.00823 117.34 8.83452 117.826 8.70217C118.311 8.56982 118.858 8.50365 119.467 8.50365C120.437 8.50365 121.301 8.68149 122.058 9.03715C122.815 9.38456 123.452 9.86429 123.97 10.4764C124.488 11.0885 124.879 11.8081 125.142 12.6353C125.414 13.4624 125.549 14.3516 125.549 15.3028V23.5785C125.549 23.8761 125.479 24.0996 125.34 24.2482C125.2 24.3972 124.998 24.4717 124.735 24.4717H122.86C122.531 24.4717 122.309 24.4096 122.193 24.2857C122.087 24.1614 122.033 23.9423 122.033 23.6279V15.3648C122.033 14.9264 121.959 14.5004 121.811 14.0869C121.663 13.665 121.445 13.2887 121.157 12.9578C120.877 12.627 120.528 12.3623 120.108 12.1638C119.689 11.9652 119.203 11.866 118.652 11.866C118.274 11.866 117.879 11.9446 117.468 12.1017C117.065 12.2506 116.695 12.4657 116.357 12.7469C116.02 13.0281 115.741 13.3714 115.519 13.7767C115.296 14.1737 115.181 14.6245 115.173 15.1291V23.169C115.173 23.3259 115.165 23.4833 115.148 23.6403C115.132 23.7976 115.095 23.9383 115.037 24.0622C114.988 24.1865 114.914 24.2857 114.815 24.3602C114.717 24.4343 114.589 24.4717 114.433 24.4717H112.397C112.125 24.4717 111.924 24.4096 111.792 24.2857C111.669 24.1534 111.607 23.967 111.607 23.7271V9.4466Z" fill="#171717"/>
<path d="M127.799 16.6179C127.799 15.8652 127.893 15.1415 128.082 14.4467C128.28 13.7436 128.555 13.0901 128.909 12.4864C129.263 11.8825 129.686 11.3366 130.18 10.8486C130.674 10.3523 131.22 9.93046 131.821 9.58309C132.421 9.22739 133.063 8.95444 133.746 8.7642C134.437 8.56567 135.156 8.46643 135.905 8.46643C136.645 8.46643 137.361 8.56567 138.052 8.7642C138.743 8.95444 139.384 9.22739 139.976 9.58309C140.577 9.93046 141.124 10.3523 141.618 10.8486C142.111 11.3366 142.535 11.8825 142.888 12.4864C143.242 13.0901 143.514 13.7436 143.703 14.4467C143.9 15.1415 143.999 15.8652 143.999 16.6179C143.999 17.3705 143.9 18.0944 143.703 18.7892C143.514 19.4841 143.242 20.1335 142.888 20.7371C142.535 21.3327 142.111 21.8785 141.618 22.3749C141.124 22.8713 140.577 23.2972 139.976 23.6526C139.384 24 138.743 24.2733 138.052 24.4717C137.361 24.6618 136.645 24.757 135.905 24.757C135.156 24.757 134.437 24.6618 133.746 24.4717C133.063 24.2733 132.421 24 131.821 23.6526C131.22 23.2972 130.674 22.8713 130.18 22.3749C129.686 21.8785 129.263 21.3327 128.909 20.7371C128.555 20.1335 128.28 19.4841 128.082 18.7892C127.893 18.0944 127.799 17.3705 127.799 16.6179ZM131.278 16.6179C131.278 17.2797 131.393 17.9084 131.624 18.504C131.854 19.0912 132.175 19.604 132.586 20.0422C132.997 20.4809 133.482 20.8279 134.042 21.0845C134.609 21.3411 135.226 21.4689 135.892 21.4689C136.542 21.4689 137.143 21.3411 137.694 21.0845C138.253 20.8279 138.734 20.4809 139.138 20.0422C139.54 19.604 139.853 19.0912 140.075 18.504C140.306 17.9084 140.421 17.2797 140.421 16.6179C140.421 15.9645 140.306 15.34 140.075 14.7445C139.853 14.1489 139.54 13.6278 139.138 13.1811C138.734 12.7262 138.253 12.3664 137.694 12.1017C137.143 11.8288 136.542 11.6923 135.892 11.6923C135.226 11.6923 134.609 11.8288 134.042 12.1017C133.482 12.3664 132.997 12.7262 132.586 13.1811C132.175 13.6278 131.854 14.1489 131.624 14.7445C131.393 15.34 131.278 15.9645 131.278 16.6179Z" fill="#171717"/>
</svg>
